<svg xmlns="http://www.w3.org/2000/svg" xmlns:xlink="http://www.w3.org/1999/xlink" width="500" zoomAndPan="magnify" viewBox="0 0 375 374.999991" height="500" preserveAspectRatio="xMidYMid meet" version="1.0"><rect x="-37.5" width="450" fill="#ffffff" y="-37.499999" height="449.999989" fill-opacity="1"/><rect x="-37.5" width="450" fill="#000000" y="-37.499999" height="449.999989" fill-opacity="1"/><path fill="#ffffff" d="M 120.628906 258.691406 L 123.148438 261.183594 L 123.402344 261.4375 C 131.242188 269.558594 131.15625 282.632812 123.148438 290.644531 C 115.140625 298.652344 102.0625 298.734375 93.941406 290.894531 L 93.691406 290.644531 L 91.167969 288.152344 L 84.308594 281.261719 C 76.214844 273.167969 76.214844 259.925781 84.308594 251.804688 C 92.402344 243.710938 105.675781 243.710938 113.769531 251.804688 Z M 259.574219 144.722656 L 262.011719 142.285156 L 264.8125 139.488281 L 290.492188 113.808594 C 298.582031 105.714844 298.582031 92.472656 290.492188 84.351562 C 282.371094 76.257812 269.125 76.257812 261.03125 84.351562 L 230.117188 115.265625 L 215.386719 129.992188 C 207.296875 138.085938 207.296875 151.332031 215.386719 159.453125 L 230.117188 174.183594 L 232.75 176.785156 L 261.226562 205.265625 C 269.320312 213.355469 282.566406 213.355469 290.6875 205.265625 C 298.777344 197.171875 298.777344 183.898438 290.6875 175.804688 L 262.207031 147.328125 Z M 85.484375 84.546875 L 85.484375 84.519531 C 93.578125 76.425781 106.851562 76.425781 114.945312 84.519531 L 290.292969 259.898438 C 298.414062 267.988281 298.414062 281.261719 290.292969 289.355469 C 282.203125 297.449219 268.957031 297.449219 260.835938 289.355469 L 85.484375 113.976562 C 77.394531 105.882812 77.394531 92.640625 85.484375 84.546875 Z M 85.234375 168.496094 C 93.324219 160.40625 106.570312 160.40625 114.691406 168.496094 L 134.65625 188.460938 L 177.863281 231.671875 L 206.34375 260.148438 C 214.4375 268.242188 214.4375 281.515625 206.34375 289.605469 C 198.222656 297.699219 184.976562 297.699219 176.886719 289.605469 L 148.40625 261.128906 L 85.234375 197.957031 C 77.140625 189.863281 77.140625 176.589844 85.234375 168.496094 Z M 85.234375 168.496094 " fill-opacity="1" fill-rule="evenodd"/></svg>