<svg xmlns="http://www.w3.org/2000/svg" xmlns:xlink="http://www.w3.org/1999/xlink" width="500" zoomAndPan="magnify" viewBox="0 0 375 374.999991" height="500" preserveAspectRatio="xMidYMid meet" version="1.0"><defs><g/><clipPath id="ccd3a2b5a3"><rect x="0" width="110" y="0" height="310"/></clipPath><clipPath id="7a8bd73c4f"><path d="M 142.460938 10.101562 L 278.210938 10.101562 L 278.210938 106.101562 L 142.460938 106.101562 Z M 142.460938 10.101562 " clip-rule="nonzero"/></clipPath><clipPath id="e14ea7fc53"><path d="M 0.160156 16 L 36 16 L 36 75 L 0.160156 75 Z M 0.160156 16 " clip-rule="nonzero"/></clipPath><clipPath id="6c564a6836"><rect x="0" width="305" y="0" height="93"/></clipPath></defs><g transform="matrix(1, 0, 0, 1, 132, 8)"><g clip-path="url(#ccd3a2b5a3)"><g fill="#000000" fill-opacity="1"><g transform="translate(2.053062, 246.598781)"><g><path d="M 55.75 -62.6875 L 55.75 -161.078125 L 95.5625 -161.078125 L 95.5625 -60.109375 C 95.5625 -37.671875 90.679688 -21.613281 80.921875 -11.9375 C 71.160156 -2.269531 54.890625 2.5625 32.109375 2.5625 C 26.285156 2.5625 21.019531 2.347656 16.3125 1.921875 C 11.601562 1.492188 7.191406 0.769531 3.078125 -0.25 L 3.078125 -36.484375 C 6.503906 -35.796875 10.1875 -35.320312 14.125 -35.0625 C 18.0625 -34.8125 22.515625 -34.6875 27.484375 -34.6875 C 39.304688 -34.6875 46.972656 -36.484375 50.484375 -40.078125 C 53.992188 -43.671875 55.75 -51.207031 55.75 -62.6875 Z M 55.75 -62.6875 "/></g></g></g></g></g><g clip-path="url(#7a8bd73c4f)"><path fill="#000000" d="M 209.746094 10.339844 L 142.960938 59.957031 C 142.636719 60.199219 142.472656 60.523438 142.472656 60.929688 L 142.472656 104.921875 C 142.46875 105.15625 142.523438 105.371094 142.644531 105.574219 C 142.765625 105.773438 142.933594 105.925781 143.140625 106.03125 C 143.351562 106.132812 143.574219 106.171875 143.804688 106.148438 C 144.039062 106.125 144.246094 106.039062 144.429688 105.894531 L 209.773438 57.339844 C 209.984375 57.179688 210.226562 57.101562 210.492188 57.101562 C 210.761719 57.101562 211 57.179688 211.214844 57.339844 L 276.441406 105.800781 C 276.621094 105.9375 276.828125 106.015625 277.054688 106.035156 C 277.28125 106.054688 277.496094 106.011719 277.699219 105.910156 C 277.902344 105.808594 278.0625 105.660156 278.183594 105.46875 C 278.304688 105.273438 278.363281 105.0625 278.367188 104.835938 L 278.367188 60.847656 C 278.367188 60.441406 278.207031 60.117188 277.882812 59.875 L 211.1875 10.339844 C 210.976562 10.179688 210.734375 10.101562 210.46875 10.101562 C 210.199219 10.101562 209.960938 10.179688 209.746094 10.339844 Z M 209.746094 10.339844 " fill-opacity="1" fill-rule="nonzero"/></g><g transform="matrix(1, 0, 0, 1, 38, 271)"><g clip-path="url(#6c564a6836)"><g clip-path="url(#e14ea7fc53)"><g fill="#000000" fill-opacity="1"><g transform="translate(0.469627, 73.225634)"><g><path d="M 3.34375 -15.28125 C 3.664062 -15.070312 4.675781 -14.617188 6.375 -13.921875 C 8.070312 -13.234375 10.0625 -12.890625 12.34375 -12.890625 C 13.988281 -12.890625 15.3125 -13.164062 16.3125 -13.71875 C 17.320312 -14.28125 18.078125 -15.144531 18.578125 -16.3125 C 19.085938 -17.488281 19.4375 -19.015625 19.625 -20.890625 C 19.8125 -22.773438 19.90625 -25.070312 19.90625 -27.78125 L 19.90625 -56.515625 L 35.421875 -56.515625 L 35.421875 -27.78125 C 35.421875 -23.476562 35.164062 -19.578125 34.65625 -16.078125 C 34.15625 -12.578125 33.132812 -9.550781 31.59375 -7 C 30.0625 -4.457031 27.753906 -2.507812 24.671875 -1.15625 C 21.597656 0.195312 17.488281 0.875 12.34375 0.875 C 9.894531 0.875 7.660156 0.582031 5.640625 0 C 3.628906 -0.582031 1.773438 -1.457031 0.078125 -2.625 Z M 3.34375 -15.28125 "/></g></g></g></g><g fill="#000000" fill-opacity="1"><g transform="translate(45.44661, 73.225634)"><g><path d="M 24.4375 0.796875 C 20.726562 0.796875 17.4375 0.210938 14.5625 -0.953125 C 11.695312 -2.117188 9.296875 -3.722656 7.359375 -5.765625 C 5.421875 -7.816406 3.960938 -10.140625 2.984375 -12.734375 C 2.003906 -15.335938 1.515625 -18.070312 1.515625 -20.9375 C 1.515625 -23.800781 2.003906 -26.546875 2.984375 -29.171875 C 3.960938 -31.804688 5.421875 -34.128906 7.359375 -36.140625 C 9.296875 -38.160156 11.695312 -39.753906 14.5625 -40.921875 C 17.4375 -42.085938 20.726562 -42.671875 24.4375 -42.671875 C 28.207031 -42.671875 31.507812 -42.085938 34.34375 -40.921875 C 37.1875 -39.753906 39.578125 -38.160156 41.515625 -36.140625 C 43.453125 -34.128906 44.910156 -31.804688 45.890625 -29.171875 C 46.878906 -26.546875 47.375 -23.800781 47.375 -20.9375 C 47.375 -18.070312 46.878906 -15.335938 45.890625 -12.734375 C 44.910156 -10.140625 43.453125 -7.816406 41.515625 -5.765625 C 39.578125 -3.722656 37.1875 -2.117188 34.34375 -0.953125 C 31.507812 0.210938 28.207031 0.796875 24.4375 0.796875 Z M 17.03125 -20.9375 C 17.03125 -19.082031 17.347656 -17.476562 17.984375 -16.125 C 18.628906 -14.769531 19.507812 -13.734375 20.625 -13.015625 C 21.738281 -12.296875 23.007812 -11.9375 24.4375 -11.9375 C 25.875 -11.9375 27.148438 -12.296875 28.265625 -13.015625 C 29.378906 -13.734375 30.253906 -14.769531 30.890625 -16.125 C 31.523438 -17.476562 31.84375 -19.082031 31.84375 -20.9375 C 31.84375 -22.789062 31.523438 -24.394531 30.890625 -25.75 C 30.253906 -27.101562 29.378906 -28.140625 28.265625 -28.859375 C 27.148438 -29.578125 25.875 -29.9375 24.4375 -29.9375 C 23.007812 -29.9375 21.738281 -29.578125 20.625 -28.859375 C 19.507812 -28.140625 18.628906 -27.101562 17.984375 -25.75 C 17.347656 -24.394531 17.03125 -22.789062 17.03125 -20.9375 Z M 17.03125 -20.9375 "/></g></g></g><g fill="#000000" fill-opacity="1"><g transform="translate(99.657624, 73.225634)"><g><path d="M 3.828125 0 L 3.828125 -41.875 L 18.953125 -41.875 L 18.953125 0 Z M 3.828125 -45.375 L 3.828125 -58.109375 L 18.953125 -58.109375 L 18.953125 -45.375 Z M 3.828125 -45.375 "/></g></g></g><g fill="#000000" fill-opacity="1"><g transform="translate(127.75862, 73.225634)"><g><path d="M 45.9375 0 L 30.8125 0 L 30.8125 -23.5625 C 30.8125 -25.632812 30.34375 -27.132812 29.40625 -28.0625 C 28.476562 -28.988281 27.40625 -29.453125 26.1875 -29.453125 C 25.34375 -29.453125 24.441406 -29.195312 23.484375 -28.6875 C 22.523438 -28.1875 21.644531 -27.484375 20.84375 -26.578125 C 20.050781 -25.679688 19.421875 -24.648438 18.953125 -23.484375 L 18.953125 0 L 3.828125 0 L 3.828125 -41.875 L 17.4375 -41.875 L 17.4375 -35.671875 C 18.445312 -37.203125 19.71875 -38.484375 21.25 -39.515625 C 22.789062 -40.554688 24.566406 -41.34375 26.578125 -41.875 C 28.597656 -42.40625 30.804688 -42.671875 33.203125 -42.671875 C 36.066406 -42.671875 38.347656 -42.164062 40.046875 -41.15625 C 41.742188 -40.144531 43.015625 -38.84375 43.859375 -37.25 C 44.710938 -35.664062 45.269531 -34.007812 45.53125 -32.28125 C 45.800781 -30.550781 45.9375 -28.972656 45.9375 -27.546875 Z M 45.9375 0 "/></g></g></g><g fill="#000000" fill-opacity="1"><g transform="translate(182.526849, 73.225634)"><g><path d="M 29.53125 0.484375 C 25.019531 0.484375 21.144531 -0.257812 17.90625 -1.75 C 14.675781 -3.238281 12.035156 -5.28125 9.984375 -7.875 C 7.941406 -10.476562 6.441406 -13.460938 5.484375 -16.828125 C 4.535156 -20.203125 4.0625 -23.75 4.0625 -27.46875 L 4.0625 -56.515625 L 19.578125 -56.515625 L 19.578125 -27.46875 C 19.578125 -25.601562 19.765625 -23.820312 20.140625 -22.125 C 20.515625 -20.425781 21.097656 -18.914062 21.890625 -17.59375 C 22.691406 -16.269531 23.710938 -15.222656 24.953125 -14.453125 C 26.203125 -13.679688 27.726562 -13.296875 29.53125 -13.296875 C 31.394531 -13.296875 32.960938 -13.679688 34.234375 -14.453125 C 35.503906 -15.222656 36.523438 -16.28125 37.296875 -17.625 C 38.066406 -18.976562 38.632812 -20.503906 39 -22.203125 C 39.375 -23.910156 39.5625 -25.664062 39.5625 -27.46875 L 39.5625 -56.515625 L 55.09375 -56.515625 L 55.09375 -27.46875 C 55.09375 -23.539062 54.570312 -19.878906 53.53125 -16.484375 C 52.5 -13.085938 50.945312 -10.113281 48.875 -7.5625 C 46.8125 -5.007812 44.171875 -3.03125 40.953125 -1.625 C 37.742188 -0.21875 33.9375 0.484375 29.53125 0.484375 Z M 29.53125 0.484375 "/></g></g></g><g fill="#000000" fill-opacity="1"><g transform="translate(247.006739, 73.225634)"><g><path d="M 32 0.796875 C 28.976562 0.796875 26.351562 0.203125 24.125 -0.984375 C 21.894531 -2.179688 20.171875 -3.921875 18.953125 -6.203125 L 18.953125 16.953125 L 3.828125 16.953125 L 3.828125 -41.875 L 16.953125 -41.875 L 16.953125 -35.578125 C 18.441406 -37.867188 20.285156 -39.625 22.484375 -40.84375 C 24.691406 -42.0625 27.359375 -42.671875 30.484375 -42.671875 C 33.296875 -42.671875 35.867188 -42.140625 38.203125 -41.078125 C 40.546875 -40.015625 42.59375 -38.5 44.34375 -36.53125 C 46.09375 -34.570312 47.441406 -32.289062 48.390625 -29.6875 C 49.347656 -27.09375 49.828125 -24.226562 49.828125 -21.09375 C 49.828125 -16.90625 49.054688 -13.164062 47.515625 -9.875 C 45.984375 -6.582031 43.875 -3.976562 41.1875 -2.0625 C 38.507812 -0.15625 35.445312 0.796875 32 0.796875 Z M 26.75 -11.9375 C 27.863281 -11.9375 28.882812 -12.175781 29.8125 -12.65625 C 30.738281 -13.132812 31.546875 -13.796875 32.234375 -14.640625 C 32.929688 -15.492188 33.460938 -16.476562 33.828125 -17.59375 C 34.203125 -18.707031 34.390625 -19.898438 34.390625 -21.171875 C 34.390625 -22.503906 34.191406 -23.695312 33.796875 -24.75 C 33.398438 -25.8125 32.828125 -26.726562 32.078125 -27.5 C 31.335938 -28.269531 30.460938 -28.867188 29.453125 -29.296875 C 28.441406 -29.722656 27.328125 -29.9375 26.109375 -29.9375 C 25.421875 -29.9375 24.742188 -29.84375 24.078125 -29.65625 C 23.421875 -29.46875 22.796875 -29.203125 22.203125 -28.859375 C 21.617188 -28.515625 21.046875 -28.078125 20.484375 -27.546875 C 19.929688 -27.015625 19.421875 -26.378906 18.953125 -25.640625 L 18.953125 -18.390625 C 19.421875 -17.171875 20.066406 -16.066406 20.890625 -15.078125 C 21.710938 -14.097656 22.628906 -13.328125 23.640625 -12.765625 C 24.648438 -12.210938 25.6875 -11.9375 26.75 -11.9375 Z M 26.75 -11.9375 "/></g></g></g></g></g></svg>