<svg xmlns="http://www.w3.org/2000/svg" xmlns:xlink="http://www.w3.org/1999/xlink" width="500" zoomAndPan="magnify" viewBox="0 0 375 374.999991" height="500" preserveAspectRatio="xMidYMid meet" version="1.0"><defs><g/><clipPath id="09cf8b4aa6"><rect x="0" width="110" y="0" height="310"/></clipPath><clipPath id="4aa455006a"><path d="M 26.65625 77.546875 L 162.40625 77.546875 L 162.40625 173.546875 L 26.65625 173.546875 Z M 26.65625 77.546875 " clip-rule="nonzero"/></clipPath><clipPath id="bbd9238490"><rect x="0" width="258" y="0" height="110"/></clipPath></defs><g transform="matrix(1, 0, 0, 1, 17, 36)"><g clip-path="url(#09cf8b4aa6)"><g fill="#000000" fill-opacity="1"><g transform="translate(2.007299, 246.327042)"><g><path d="M 55.8125 -62.765625 L 55.8125 -161.28125 L 95.6875 -161.28125 L 95.6875 -60.1875 C 95.6875 -37.726562 90.796875 -21.648438 81.015625 -11.953125 C 71.242188 -2.265625 54.957031 2.578125 32.15625 2.578125 C 26.320312 2.578125 21.046875 2.359375 16.328125 1.921875 C 11.617188 1.492188 7.207031 0.769531 3.09375 -0.25 L 3.09375 -36.53125 C 6.519531 -35.84375 10.203125 -35.367188 14.140625 -35.109375 C 18.085938 -34.859375 22.550781 -34.734375 27.53125 -34.734375 C 39.351562 -34.734375 47.019531 -36.53125 50.53125 -40.125 C 54.050781 -43.726562 55.8125 -51.273438 55.8125 -62.765625 Z M 55.8125 -62.765625 "/></g></g></g></g></g><g clip-path="url(#4aa455006a)"><path fill="#000000" d="M 94.035156 77.789062 L 27.160156 127.472656 C 26.832031 127.714844 26.671875 128.042969 26.671875 128.449219 L 26.671875 172.496094 C 26.664062 172.730469 26.722656 172.949219 26.84375 173.148438 C 26.964844 173.351562 27.132812 173.503906 27.339844 173.605469 C 27.550781 173.710938 27.773438 173.75 28.003906 173.726562 C 28.238281 173.703125 28.449219 173.617188 28.632812 173.472656 L 94.0625 124.851562 C 94.273438 124.691406 94.515625 124.613281 94.78125 124.613281 C 95.050781 124.613281 95.292969 124.691406 95.503906 124.851562 L 160.816406 173.378906 C 161 173.515625 161.207031 173.59375 161.433594 173.613281 C 161.660156 173.632812 161.875 173.589844 162.078125 173.488281 C 162.28125 173.386719 162.445312 173.238281 162.5625 173.042969 C 162.683594 172.851562 162.746094 172.640625 162.746094 172.410156 L 162.746094 128.363281 C 162.746094 127.957031 162.585938 127.632812 162.261719 127.390625 L 95.480469 77.789062 C 95.265625 77.628906 95.023438 77.550781 94.757812 77.550781 C 94.488281 77.550781 94.25 77.628906 94.035156 77.789062 Z M 94.035156 77.789062 " fill-opacity="1" fill-rule="nonzero"/></g><g transform="matrix(1, 0, 0, 1, 115, 190)"><g clip-path="url(#bbd9238490)"><g fill="#000000" fill-opacity="1"><g transform="translate(1.364636, 87.673707)"><g><path d="M 46.484375 -22.375 C 46.484375 -13.976562 44.789062 -8 41.40625 -4.4375 C 38.019531 -0.875 32.34375 0.90625 24.375 0.90625 C 16.394531 0.90625 10.710938 -0.875 7.328125 -4.4375 C 3.953125 -8 2.265625 -13.976562 2.265625 -22.375 C 2.265625 -30.769531 3.953125 -36.75 7.328125 -40.3125 C 10.710938 -43.882812 16.394531 -45.671875 24.375 -45.671875 C 32.34375 -45.671875 38.019531 -43.882812 41.40625 -40.3125 C 44.789062 -36.75 46.484375 -30.769531 46.484375 -22.375 Z M 15.859375 -22.5625 C 15.859375 -17.96875 16.351562 -15.003906 17.34375 -13.671875 C 18.34375 -12.347656 20.6875 -11.6875 24.375 -11.6875 C 28.0625 -11.6875 30.398438 -12.347656 31.390625 -13.671875 C 32.390625 -15.003906 32.890625 -17.96875 32.890625 -22.5625 C 32.890625 -27.15625 32.390625 -30.113281 31.390625 -31.4375 C 30.398438 -32.769531 28.0625 -33.4375 24.375 -33.4375 C 20.6875 -33.4375 18.34375 -32.769531 17.34375 -31.4375 C 16.351562 -30.113281 15.859375 -27.15625 15.859375 -22.5625 Z M 15.859375 -22.5625 "/></g></g></g><g fill="#000000" fill-opacity="1"><g transform="translate(56.1789, 87.673707)"><g><path d="M 17.84375 -49.65625 L 3.53125 -49.65625 L 3.53125 -60.25 L 17.84375 -60.25 Z M 17.484375 0 L 3.890625 0 L 3.890625 -44.765625 L 17.484375 -44.765625 Z M 17.484375 0 "/></g></g></g><g fill="#000000" fill-opacity="1"><g transform="translate(83.631975, 87.673707)"><g><path d="M 17.484375 0 L 3.890625 0 L 3.890625 -44.765625 L 15.671875 -44.765625 L 16.21875 -40.046875 L 16.484375 -40.046875 C 18.421875 -42.046875 20.519531 -43.484375 22.78125 -44.359375 C 25.050781 -45.234375 27.785156 -45.671875 30.984375 -45.671875 C 36.054688 -45.671875 39.890625 -44.429688 42.484375 -41.953125 C 45.085938 -39.472656 46.390625 -35.816406 46.390625 -30.984375 L 46.390625 0 L 32.796875 0 L 32.796875 -29.171875 C 32.796875 -30.566406 32.238281 -31.625 31.125 -32.34375 C 30.007812 -33.070312 28.363281 -33.4375 26.1875 -33.4375 C 24.550781 -33.4375 22.976562 -33.253906 21.46875 -32.890625 C 19.957031 -32.523438 18.628906 -32.007812 17.484375 -31.34375 Z M 17.484375 0 "/></g></g></g><g fill="#000000" fill-opacity="1"><g transform="translate(139.805236, 87.673707)"><g><path d="M 38.59375 -23.921875 L 38.59375 -56.8125 L 52.640625 -56.8125 L 52.640625 -23.921875 C 52.640625 -15.640625 50.613281 -9.429688 46.5625 -5.296875 C 42.519531 -1.160156 36.453125 0.90625 28.359375 0.90625 C 19.835938 0.90625 13.628906 -1.054688 9.734375 -4.984375 C 5.835938 -8.910156 3.890625 -15.222656 3.890625 -23.921875 L 3.890625 -56.8125 L 17.9375 -56.8125 L 17.9375 -23.921875 C 17.9375 -19.328125 18.644531 -16.226562 20.0625 -14.625 C 21.488281 -13.03125 24.253906 -12.234375 28.359375 -12.234375 C 32.410156 -12.234375 35.128906 -13.03125 36.515625 -14.625 C 37.898438 -16.226562 38.59375 -19.328125 38.59375 -23.921875 Z M 38.59375 -23.921875 "/></g></g></g><g fill="#000000" fill-opacity="1"><g transform="translate(202.411098, 87.673707)"><g><path d="M 17.484375 13.765625 L 3.890625 13.765625 L 3.890625 -44.765625 L 15.859375 -44.765625 L 16.578125 -40.59375 L 16.765625 -40.59375 C 18.390625 -42.28125 20.332031 -43.546875 22.59375 -44.390625 C 24.863281 -45.242188 27.453125 -45.671875 30.359375 -45.671875 C 36.273438 -45.671875 40.484375 -43.882812 42.984375 -40.3125 C 45.492188 -36.75 46.75 -30.769531 46.75 -22.375 C 46.75 -14.21875 45.160156 -8.296875 41.984375 -4.609375 C 38.816406 -0.929688 33.671875 0.90625 26.546875 0.90625 C 24.796875 0.90625 23.148438 0.796875 21.609375 0.578125 C 20.066406 0.367188 18.691406 0.0859375 17.484375 -0.265625 Z M 33.15625 -22.375 C 33.15625 -26.90625 32.671875 -29.878906 31.703125 -31.296875 C 30.742188 -32.722656 28.664062 -33.4375 25.46875 -33.4375 C 23.894531 -33.4375 22.425781 -33.3125 21.0625 -33.0625 C 19.707031 -32.820312 18.515625 -32.460938 17.484375 -31.984375 L 17.484375 -12.859375 C 18.390625 -12.441406 19.429688 -12.140625 20.609375 -11.953125 C 21.785156 -11.773438 23.128906 -11.6875 24.640625 -11.6875 C 28.328125 -11.6875 30.664062 -12.332031 31.65625 -13.625 C 32.65625 -14.925781 33.15625 -17.84375 33.15625 -22.375 Z M 33.15625 -22.375 "/></g></g></g></g></g></svg>