<svg xmlns="http://www.w3.org/2000/svg" xmlns:xlink="http://www.w3.org/1999/xlink" width="500" zoomAndPan="magnify" viewBox="0 0 375 374.999991" height="500" preserveAspectRatio="xMidYMid meet" version="1.0"><defs><g/><clipPath id="d19b2e36e9"><rect x="0" width="74" y="0" height="207"/></clipPath><clipPath id="c09604a65a"><path d="M 157.417969 60.109375 L 248.167969 60.109375 L 248.167969 124.609375 L 157.417969 124.609375 Z M 157.417969 60.109375 " clip-rule="nonzero"/></clipPath><clipPath id="fd957e1b8a"><rect x="0" width="205" y="0" height="63"/></clipPath><clipPath id="fe8fedebd6"><rect x="0" width="142" y="0" height="19"/></clipPath></defs><rect x="-37.5" width="450" fill="#ffffff" y="-37.499999" height="449.999989" fill-opacity="1"/><rect x="-37.5" width="450" fill="#ffffff" y="-37.499999" height="449.999989" fill-opacity="1"/><g transform="matrix(1, 0, 0, 1, 150, 59)"><g clip-path="url(#d19b2e36e9)"><g fill="#000000" fill-opacity="1"><g transform="translate(1.802864, 164.410475)"><g><path d="M 37.234375 -41.859375 L 37.234375 -107.578125 L 63.828125 -107.578125 L 63.828125 -40.15625 C 63.828125 -25.164062 60.566406 -14.4375 54.046875 -7.96875 C 47.523438 -1.507812 36.660156 1.71875 21.453125 1.71875 C 17.554688 1.71875 14.035156 1.570312 10.890625 1.28125 C 7.742188 1 4.800781 0.515625 2.0625 -0.171875 L 2.0625 -24.359375 C 4.34375 -23.898438 6.800781 -23.582031 9.4375 -23.40625 C 12.070312 -23.238281 15.046875 -23.15625 18.359375 -23.15625 C 26.253906 -23.15625 31.375 -24.359375 33.71875 -26.765625 C 36.0625 -29.171875 37.234375 -34.203125 37.234375 -41.859375 Z M 37.234375 -41.859375 "/></g></g></g></g></g><g clip-path="url(#c09604a65a)"><path fill="#000000" d="M 202.359375 60.269531 L 157.757812 93.40625 C 157.539062 93.570312 157.429688 93.785156 157.429688 94.058594 L 157.429688 123.4375 C 157.421875 123.777344 157.570312 124.023438 157.878906 124.175781 C 158.183594 124.328125 158.46875 124.296875 158.738281 124.085938 L 202.375 91.660156 C 202.519531 91.550781 202.679688 91.5 202.859375 91.5 C 203.035156 91.5 203.195312 91.550781 203.339844 91.660156 L 246.898438 124.023438 C 247.164062 124.222656 247.445312 124.246094 247.742188 124.097656 C 248.035156 123.949219 248.183594 123.710938 248.183594 123.378906 L 248.183594 94 C 248.1875 93.730469 248.078125 93.511719 247.863281 93.351562 L 203.320312 60.269531 C 203.179688 60.164062 203.019531 60.109375 202.839844 60.109375 C 202.660156 60.109375 202.5 60.164062 202.359375 60.269531 Z M 202.359375 60.269531 " fill-opacity="1" fill-rule="nonzero"/></g><g transform="matrix(1, 0, 0, 1, 87, 234)"><g clip-path="url(#fd957e1b8a)"><g fill="#000000" fill-opacity="1"><g transform="translate(0.962829, 49.272104)"><g><path d="M 2.234375 -10.203125 C 2.441406 -10.066406 3.113281 -9.765625 4.25 -9.296875 C 5.382812 -8.835938 6.710938 -8.609375 8.234375 -8.609375 C 9.335938 -8.609375 10.222656 -8.796875 10.890625 -9.171875 C 11.566406 -9.546875 12.070312 -10.117188 12.40625 -10.890625 C 12.75 -11.671875 12.984375 -12.691406 13.109375 -13.953125 C 13.234375 -15.210938 13.296875 -16.75 13.296875 -18.5625 L 13.296875 -37.75 L 23.65625 -37.75 L 23.65625 -18.5625 C 23.65625 -15.6875 23.488281 -13.078125 23.15625 -10.734375 C 22.820312 -8.398438 22.140625 -6.378906 21.109375 -4.671875 C 20.078125 -2.972656 18.535156 -1.671875 16.484375 -0.765625 C 14.429688 0.128906 11.679688 0.578125 8.234375 0.578125 C 6.609375 0.578125 5.117188 0.382812 3.765625 0 C 2.421875 -0.382812 1.179688 -0.96875 0.046875 -1.75 Z M 2.234375 -10.203125 "/></g></g></g><g fill="#000000" fill-opacity="1"><g transform="translate(31.00289, 49.272104)"><g><path d="M 16.328125 0.53125 C 13.847656 0.53125 11.648438 0.140625 9.734375 -0.640625 C 7.816406 -1.421875 6.210938 -2.492188 4.921875 -3.859375 C 3.628906 -5.222656 2.65625 -6.769531 2 -8.5 C 1.34375 -10.238281 1.015625 -12.066406 1.015625 -13.984375 C 1.015625 -15.898438 1.34375 -17.734375 2 -19.484375 C 2.65625 -21.242188 3.628906 -22.796875 4.921875 -24.140625 C 6.210938 -25.484375 7.816406 -26.546875 9.734375 -27.328125 C 11.648438 -28.109375 13.847656 -28.5 16.328125 -28.5 C 18.835938 -28.5 21.039062 -28.109375 22.9375 -27.328125 C 24.832031 -26.546875 26.425781 -25.484375 27.71875 -24.140625 C 29.019531 -22.796875 30 -21.242188 30.65625 -19.484375 C 31.3125 -17.734375 31.640625 -15.898438 31.640625 -13.984375 C 31.640625 -12.066406 31.3125 -10.238281 30.65625 -8.5 C 30 -6.769531 29.019531 -5.222656 27.71875 -3.859375 C 26.425781 -2.492188 24.832031 -1.421875 22.9375 -0.640625 C 21.039062 0.140625 18.835938 0.53125 16.328125 0.53125 Z M 11.375 -13.984375 C 11.375 -12.742188 11.585938 -11.671875 12.015625 -10.765625 C 12.441406 -9.859375 13.023438 -9.164062 13.765625 -8.6875 C 14.515625 -8.207031 15.367188 -7.96875 16.328125 -7.96875 C 17.285156 -7.96875 18.132812 -8.207031 18.875 -8.6875 C 19.625 -9.164062 20.207031 -9.859375 20.625 -10.765625 C 21.050781 -11.671875 21.265625 -12.742188 21.265625 -13.984375 C 21.265625 -15.222656 21.050781 -16.296875 20.625 -17.203125 C 20.207031 -18.109375 19.625 -18.800781 18.875 -19.28125 C 18.132812 -19.757812 17.285156 -20 16.328125 -20 C 15.367188 -20 14.515625 -19.757812 13.765625 -19.28125 C 13.023438 -18.800781 12.441406 -18.109375 12.015625 -17.203125 C 11.585938 -16.296875 11.375 -15.222656 11.375 -13.984375 Z M 11.375 -13.984375 "/></g></g></g><g fill="#000000" fill-opacity="1"><g transform="translate(67.210347, 49.272104)"><g><path d="M 2.546875 0 L 2.546875 -27.96875 L 12.65625 -27.96875 L 12.65625 0 Z M 2.546875 -30.3125 L 2.546875 -38.8125 L 12.65625 -38.8125 L 12.65625 -30.3125 Z M 2.546875 -30.3125 "/></g></g></g><g fill="#000000" fill-opacity="1"><g transform="translate(85.978961, 49.272104)"><g><path d="M 30.6875 0 L 20.578125 0 L 20.578125 -15.734375 C 20.578125 -17.117188 20.265625 -18.117188 19.640625 -18.734375 C 19.023438 -19.359375 18.3125 -19.671875 17.5 -19.671875 C 16.925781 -19.671875 16.320312 -19.5 15.6875 -19.15625 C 15.050781 -18.820312 14.46875 -18.351562 13.9375 -17.75 C 13.40625 -17.15625 12.976562 -16.46875 12.65625 -15.6875 L 12.65625 0 L 2.546875 0 L 2.546875 -27.96875 L 11.640625 -27.96875 L 11.640625 -23.828125 C 12.316406 -24.847656 13.164062 -25.703125 14.1875 -26.390625 C 15.21875 -27.085938 16.40625 -27.613281 17.75 -27.96875 C 19.101562 -28.320312 20.578125 -28.5 22.171875 -28.5 C 24.085938 -28.5 25.613281 -28.160156 26.75 -27.484375 C 27.882812 -26.816406 28.734375 -25.953125 29.296875 -24.890625 C 29.867188 -23.828125 30.242188 -22.71875 30.421875 -21.5625 C 30.597656 -20.40625 30.6875 -19.347656 30.6875 -18.390625 Z M 30.6875 0 "/></g></g></g><g fill="#000000" fill-opacity="1"><g transform="translate(122.558581, 49.272104)"><g><path d="M 19.734375 0.3125 C 16.710938 0.3125 14.117188 -0.179688 11.953125 -1.171875 C 9.796875 -2.160156 8.035156 -3.523438 6.671875 -5.265625 C 5.304688 -7.003906 4.304688 -9 3.671875 -11.25 C 3.035156 -13.5 2.71875 -15.863281 2.71875 -18.34375 L 2.71875 -37.75 L 13.078125 -37.75 L 13.078125 -18.34375 C 13.078125 -17.101562 13.203125 -15.914062 13.453125 -14.78125 C 13.703125 -13.644531 14.09375 -12.632812 14.625 -11.75 C 15.15625 -10.863281 15.835938 -10.160156 16.671875 -9.640625 C 17.503906 -9.128906 18.523438 -8.875 19.734375 -8.875 C 20.972656 -8.875 22.015625 -9.128906 22.859375 -9.640625 C 23.710938 -10.160156 24.394531 -10.875 24.90625 -11.78125 C 25.425781 -12.6875 25.804688 -13.703125 26.046875 -14.828125 C 26.296875 -15.960938 26.421875 -17.132812 26.421875 -18.34375 L 26.421875 -37.75 L 36.796875 -37.75 L 36.796875 -18.34375 C 36.796875 -15.71875 36.445312 -13.269531 35.75 -11 C 35.0625 -8.738281 34.023438 -6.753906 32.640625 -5.046875 C 31.265625 -3.347656 29.503906 -2.03125 27.359375 -1.09375 C 25.210938 -0.15625 22.671875 0.3125 19.734375 0.3125 Z M 19.734375 0.3125 "/></g></g></g><g fill="#000000" fill-opacity="1"><g transform="translate(165.624606, 49.272104)"><g><path d="M 21.375 0.53125 C 19.351562 0.53125 17.597656 0.132812 16.109375 -0.65625 C 14.617188 -1.457031 13.46875 -2.617188 12.65625 -4.140625 L 12.65625 11.328125 L 2.546875 11.328125 L 2.546875 -27.96875 L 11.328125 -27.96875 L 11.328125 -23.765625 C 12.316406 -25.285156 13.546875 -26.453125 15.015625 -27.265625 C 16.492188 -28.085938 18.273438 -28.5 20.359375 -28.5 C 22.242188 -28.5 23.960938 -28.144531 25.515625 -27.4375 C 27.078125 -26.726562 28.441406 -25.71875 29.609375 -24.40625 C 30.785156 -23.09375 31.691406 -21.566406 32.328125 -19.828125 C 32.960938 -18.097656 33.28125 -16.1875 33.28125 -14.09375 C 33.28125 -11.289062 32.765625 -8.789062 31.734375 -6.59375 C 30.710938 -4.394531 29.304688 -2.65625 27.515625 -1.375 C 25.722656 -0.101562 23.675781 0.53125 21.375 0.53125 Z M 17.859375 -7.96875 C 18.609375 -7.96875 19.289062 -8.128906 19.90625 -8.453125 C 20.53125 -8.773438 21.070312 -9.21875 21.53125 -9.78125 C 21.988281 -10.351562 22.34375 -11.007812 22.59375 -11.75 C 22.84375 -12.5 22.96875 -13.296875 22.96875 -14.140625 C 22.96875 -15.023438 22.832031 -15.820312 22.5625 -16.53125 C 22.300781 -17.238281 21.921875 -17.847656 21.421875 -18.359375 C 20.929688 -18.878906 20.347656 -19.28125 19.671875 -19.5625 C 18.992188 -19.851562 18.25 -20 17.4375 -20 C 16.976562 -20 16.523438 -19.9375 16.078125 -19.8125 C 15.640625 -19.6875 15.222656 -19.503906 14.828125 -19.265625 C 14.441406 -19.035156 14.0625 -18.742188 13.6875 -18.390625 C 13.320312 -18.035156 12.976562 -17.613281 12.65625 -17.125 L 12.65625 -12.28125 C 12.976562 -11.46875 13.410156 -10.734375 13.953125 -10.078125 C 14.503906 -9.421875 15.113281 -8.90625 15.78125 -8.53125 C 16.457031 -8.15625 17.148438 -7.96875 17.859375 -7.96875 Z M 17.859375 -7.96875 "/></g></g></g></g></g><g transform="matrix(1, 0, 0, 1, 120, 296)"><g clip-path="url(#fe8fedebd6)"><g fill="#000000" fill-opacity="1"><g transform="translate(0.41347, 14.332084)"><g><path d="M 8.671875 -1.84375 L 8.671875 0 L 1.125 0 L 1.125 -10.84375 L 8.53125 -10.84375 L 8.53125 -9 L 3.234375 -9 L 3.234375 -6.390625 L 7.8125 -6.390625 L 7.8125 -4.671875 L 3.234375 -4.671875 L 3.234375 -1.84375 Z M 8.671875 -1.84375 "/></g></g></g><g fill="#000000" fill-opacity="1"><g transform="translate(15.486509, 14.332084)"><g><path d="M 7.59375 -8 C 7.519531 -8.070312 7.390625 -8.171875 7.203125 -8.296875 C 7.015625 -8.421875 6.785156 -8.535156 6.515625 -8.640625 C 6.242188 -8.753906 5.953125 -8.851562 5.640625 -8.9375 C 5.328125 -9.03125 5.003906 -9.078125 4.671875 -9.078125 C 4.097656 -9.078125 3.664062 -8.96875 3.375 -8.75 C 3.09375 -8.539062 2.953125 -8.242188 2.953125 -7.859375 C 2.953125 -7.554688 3.039062 -7.316406 3.21875 -7.140625 C 3.40625 -6.972656 3.679688 -6.828125 4.046875 -6.703125 C 4.410156 -6.585938 4.867188 -6.457031 5.421875 -6.3125 C 6.140625 -6.132812 6.757812 -5.921875 7.28125 -5.671875 C 7.800781 -5.421875 8.203125 -5.09375 8.484375 -4.6875 C 8.765625 -4.289062 8.90625 -3.765625 8.90625 -3.109375 C 8.90625 -2.523438 8.796875 -2.023438 8.578125 -1.609375 C 8.367188 -1.203125 8.078125 -0.867188 7.703125 -0.609375 C 7.328125 -0.359375 6.898438 -0.171875 6.421875 -0.046875 C 5.941406 0.0664062 5.429688 0.125 4.890625 0.125 C 4.347656 0.125 3.804688 0.0664062 3.265625 -0.046875 C 2.722656 -0.160156 2.203125 -0.320312 1.703125 -0.53125 C 1.210938 -0.738281 0.757812 -0.988281 0.34375 -1.28125 L 1.265625 -3.109375 C 1.359375 -3.015625 1.519531 -2.890625 1.75 -2.734375 C 1.988281 -2.585938 2.273438 -2.441406 2.609375 -2.296875 C 2.953125 -2.148438 3.320312 -2.023438 3.71875 -1.921875 C 4.113281 -1.816406 4.515625 -1.765625 4.921875 -1.765625 C 5.492188 -1.765625 5.925781 -1.863281 6.21875 -2.0625 C 6.507812 -2.257812 6.65625 -2.535156 6.65625 -2.890625 C 6.65625 -3.210938 6.535156 -3.460938 6.296875 -3.640625 C 6.066406 -3.828125 5.742188 -3.988281 5.328125 -4.125 C 4.910156 -4.269531 4.414062 -4.421875 3.84375 -4.578125 C 3.164062 -4.773438 2.597656 -4.992188 2.140625 -5.234375 C 1.679688 -5.472656 1.335938 -5.773438 1.109375 -6.140625 C 0.890625 -6.503906 0.78125 -6.960938 0.78125 -7.515625 C 0.78125 -8.265625 0.953125 -8.890625 1.296875 -9.390625 C 1.648438 -9.890625 2.128906 -10.269531 2.734375 -10.53125 C 3.335938 -10.789062 4.003906 -10.921875 4.734375 -10.921875 C 5.242188 -10.921875 5.722656 -10.863281 6.171875 -10.75 C 6.628906 -10.644531 7.054688 -10.5 7.453125 -10.3125 C 7.847656 -10.132812 8.207031 -9.9375 8.53125 -9.71875 Z M 7.59375 -8 "/></g></g></g><g fill="#000000" fill-opacity="1"><g transform="translate(30.74277, 14.332084)"><g><path d="M 9.25 -9 L 5.78125 -9 L 5.78125 0 L 3.6875 0 L 3.6875 -9 L 0.21875 -9 L 0.21875 -10.84375 L 9.25 -10.84375 Z M 9.25 -9 "/></g></g></g><g fill="#000000" fill-opacity="1"><g transform="translate(46.090644, 14.332084)"><g><path d="M 1.125 0 L 1.125 -10.84375 L 5.078125 -10.84375 C 6.253906 -10.84375 7.238281 -10.597656 8.03125 -10.109375 C 8.832031 -9.628906 9.429688 -8.976562 9.828125 -8.15625 C 10.222656 -7.34375 10.421875 -6.4375 10.421875 -5.4375 C 10.421875 -4.34375 10.203125 -3.382812 9.765625 -2.5625 C 9.328125 -1.75 8.707031 -1.117188 7.90625 -0.671875 C 7.101562 -0.222656 6.160156 0 5.078125 0 Z M 8.296875 -5.4375 C 8.296875 -6.144531 8.164062 -6.765625 7.90625 -7.296875 C 7.65625 -7.828125 7.289062 -8.242188 6.8125 -8.546875 C 6.332031 -8.847656 5.753906 -9 5.078125 -9 L 3.234375 -9 L 3.234375 -1.84375 L 5.078125 -1.84375 C 5.765625 -1.84375 6.347656 -2 6.828125 -2.3125 C 7.304688 -2.625 7.671875 -3.050781 7.921875 -3.59375 C 8.171875 -4.144531 8.296875 -4.757812 8.296875 -5.4375 Z M 8.296875 -5.4375 "/></g></g></g><g fill="#000000" fill-opacity="1"><g transform="translate(62.919528, 14.332084)"><g><path d="M 0.890625 0 L 0.890625 -2.203125 L 2.5625 -2.203125 L 2.5625 0 Z M 0.890625 0 "/></g></g></g><g fill="#000000" fill-opacity="1"><g transform="translate(72.251748, 14.332084)"><g/></g></g><g fill="#000000" fill-opacity="1"><g transform="translate(81.812996, 14.332084)"><g><path d="M 0.578125 0 C 0.578125 -0.457031 0.613281 -0.867188 0.6875 -1.234375 C 0.757812 -1.597656 0.882812 -1.9375 1.0625 -2.25 C 1.238281 -2.570312 1.484375 -2.875 1.796875 -3.15625 C 2.109375 -3.4375 2.503906 -3.707031 2.984375 -3.96875 C 3.398438 -4.195312 3.765625 -4.394531 4.078125 -4.5625 C 4.390625 -4.726562 4.65625 -4.878906 4.875 -5.015625 C 5.09375 -5.160156 5.257812 -5.304688 5.375 -5.453125 C 5.488281 -5.609375 5.546875 -5.78125 5.546875 -5.96875 C 5.546875 -6.175781 5.488281 -6.363281 5.375 -6.53125 C 5.257812 -6.695312 5.097656 -6.832031 4.890625 -6.9375 C 4.691406 -7.039062 4.441406 -7.09375 4.140625 -7.09375 C 3.898438 -7.09375 3.671875 -7.0625 3.453125 -7 C 3.242188 -6.9375 3.050781 -6.847656 2.875 -6.734375 C 2.695312 -6.628906 2.53125 -6.503906 2.375 -6.359375 C 2.226562 -6.222656 2.09375 -6.078125 1.96875 -5.921875 L 0.671875 -7.421875 C 0.816406 -7.566406 1.007812 -7.722656 1.25 -7.890625 C 1.488281 -8.054688 1.769531 -8.210938 2.09375 -8.359375 C 2.425781 -8.515625 2.796875 -8.640625 3.203125 -8.734375 C 3.609375 -8.828125 4.039062 -8.875 4.5 -8.875 C 5.1875 -8.875 5.773438 -8.765625 6.265625 -8.546875 C 6.753906 -8.328125 7.128906 -8.023438 7.390625 -7.640625 C 7.648438 -7.253906 7.78125 -6.800781 7.78125 -6.28125 C 7.78125 -5.925781 7.710938 -5.609375 7.578125 -5.328125 C 7.441406 -5.054688 7.269531 -4.816406 7.0625 -4.609375 C 6.863281 -4.398438 6.644531 -4.210938 6.40625 -4.046875 C 6.164062 -3.890625 5.9375 -3.75 5.71875 -3.625 C 5.394531 -3.457031 5.109375 -3.304688 4.859375 -3.171875 C 4.609375 -3.035156 4.382812 -2.894531 4.1875 -2.75 C 3.988281 -2.613281 3.816406 -2.472656 3.671875 -2.328125 C 3.523438 -2.191406 3.394531 -2.03125 3.28125 -1.84375 L 7.953125 -1.84375 L 7.953125 0 Z M 0.578125 0 "/></g></g></g><g fill="#000000" fill-opacity="1"><g transform="translate(96.321112, 14.332084)"><g><path d="M 8.640625 -4.484375 C 8.640625 -3.578125 8.46875 -2.773438 8.125 -2.078125 C 7.78125 -1.390625 7.3125 -0.84375 6.71875 -0.4375 C 6.125 -0.0390625 5.445312 0.15625 4.6875 0.15625 C 3.9375 0.15625 3.257812 -0.0390625 2.65625 -0.4375 C 2.0625 -0.84375 1.59375 -1.390625 1.25 -2.078125 C 0.914062 -2.773438 0.75 -3.578125 0.75 -4.484375 C 0.75 -5.378906 0.914062 -6.175781 1.25 -6.875 C 1.59375 -7.570312 2.0625 -8.117188 2.65625 -8.515625 C 3.257812 -8.921875 3.9375 -9.125 4.6875 -9.125 C 5.445312 -9.125 6.125 -8.921875 6.71875 -8.515625 C 7.3125 -8.117188 7.78125 -7.570312 8.125 -6.875 C 8.46875 -6.175781 8.640625 -5.378906 8.640625 -4.484375 Z M 6.578125 -4.484375 C 6.578125 -5.023438 6.492188 -5.503906 6.328125 -5.921875 C 6.171875 -6.335938 5.945312 -6.660156 5.65625 -6.890625 C 5.375 -7.128906 5.050781 -7.25 4.6875 -7.25 C 4.3125 -7.25 3.976562 -7.128906 3.6875 -6.890625 C 3.40625 -6.660156 3.1875 -6.335938 3.03125 -5.921875 C 2.875 -5.503906 2.796875 -5.023438 2.796875 -4.484375 C 2.796875 -3.929688 2.875 -3.453125 3.03125 -3.046875 C 3.1875 -2.640625 3.40625 -2.316406 3.6875 -2.078125 C 3.976562 -1.847656 4.3125 -1.734375 4.6875 -1.734375 C 5.050781 -1.734375 5.375 -1.847656 5.65625 -2.078125 C 5.9375 -2.316406 6.160156 -2.640625 6.328125 -3.046875 C 6.492188 -3.460938 6.578125 -3.941406 6.578125 -4.484375 Z M 6.578125 -4.484375 "/></g></g></g><g fill="#000000" fill-opacity="1"><g transform="translate(111.592642, 14.332084)"><g><path d="M 0.578125 0 C 0.578125 -0.457031 0.613281 -0.867188 0.6875 -1.234375 C 0.757812 -1.597656 0.882812 -1.9375 1.0625 -2.25 C 1.238281 -2.570312 1.484375 -2.875 1.796875 -3.15625 C 2.109375 -3.4375 2.503906 -3.707031 2.984375 -3.96875 C 3.398438 -4.195312 3.765625 -4.394531 4.078125 -4.5625 C 4.390625 -4.726562 4.65625 -4.878906 4.875 -5.015625 C 5.09375 -5.160156 5.257812 -5.304688 5.375 -5.453125 C 5.488281 -5.609375 5.546875 -5.78125 5.546875 -5.96875 C 5.546875 -6.175781 5.488281 -6.363281 5.375 -6.53125 C 5.257812 -6.695312 5.097656 -6.832031 4.890625 -6.9375 C 4.691406 -7.039062 4.441406 -7.09375 4.140625 -7.09375 C 3.898438 -7.09375 3.671875 -7.0625 3.453125 -7 C 3.242188 -6.9375 3.050781 -6.847656 2.875 -6.734375 C 2.695312 -6.628906 2.53125 -6.503906 2.375 -6.359375 C 2.226562 -6.222656 2.09375 -6.078125 1.96875 -5.921875 L 0.671875 -7.421875 C 0.816406 -7.566406 1.007812 -7.722656 1.25 -7.890625 C 1.488281 -8.054688 1.769531 -8.210938 2.09375 -8.359375 C 2.425781 -8.515625 2.796875 -8.640625 3.203125 -8.734375 C 3.609375 -8.828125 4.039062 -8.875 4.5 -8.875 C 5.1875 -8.875 5.773438 -8.765625 6.265625 -8.546875 C 6.753906 -8.328125 7.128906 -8.023438 7.390625 -7.640625 C 7.648438 -7.253906 7.78125 -6.800781 7.78125 -6.28125 C 7.78125 -5.925781 7.710938 -5.609375 7.578125 -5.328125 C 7.441406 -5.054688 7.269531 -4.816406 7.0625 -4.609375 C 6.863281 -4.398438 6.644531 -4.210938 6.40625 -4.046875 C 6.164062 -3.890625 5.9375 -3.75 5.71875 -3.625 C 5.394531 -3.457031 5.109375 -3.304688 4.859375 -3.171875 C 4.609375 -3.035156 4.382812 -2.894531 4.1875 -2.75 C 3.988281 -2.613281 3.816406 -2.472656 3.671875 -2.328125 C 3.523438 -2.191406 3.394531 -2.03125 3.28125 -1.84375 L 7.953125 -1.84375 L 7.953125 0 Z M 0.578125 0 "/></g></g></g><g fill="#000000" fill-opacity="1"><g transform="translate(126.100758, 14.332084)"><g><path d="M 4 2.28125 C 3.21875 2.28125 2.507812 2.109375 1.875 1.765625 C 1.25 1.429688 0.769531 0.972656 0.4375 0.390625 L 1.625 -0.828125 C 1.90625 -0.429688 2.257812 -0.117188 2.6875 0.109375 C 3.113281 0.347656 3.554688 0.46875 4.015625 0.46875 C 4.378906 0.46875 4.703125 0.390625 4.984375 0.234375 C 5.265625 0.0859375 5.488281 -0.117188 5.65625 -0.390625 C 5.820312 -0.671875 5.90625 -0.988281 5.90625 -1.34375 C 5.90625 -1.695312 5.828125 -2.003906 5.671875 -2.265625 C 5.515625 -2.535156 5.300781 -2.742188 5.03125 -2.890625 C 4.769531 -3.046875 4.472656 -3.125 4.140625 -3.125 C 3.804688 -3.125 3.492188 -3.046875 3.203125 -2.890625 C 2.910156 -2.742188 2.675781 -2.535156 2.5 -2.265625 L 0.71875 -2.265625 L 1.96875 -8.71875 L 7.3125 -8.71875 L 7.3125 -6.859375 L 3.453125 -6.859375 L 3.015625 -4.4375 C 3.140625 -4.550781 3.316406 -4.648438 3.546875 -4.734375 C 3.785156 -4.828125 4.082031 -4.875 4.4375 -4.875 C 5.113281 -4.875 5.722656 -4.722656 6.265625 -4.421875 C 6.804688 -4.128906 7.226562 -3.722656 7.53125 -3.203125 C 7.832031 -2.679688 7.984375 -2.078125 7.984375 -1.390625 C 7.984375 -0.671875 7.8125 -0.0351562 7.46875 0.515625 C 7.125 1.078125 6.648438 1.507812 6.046875 1.8125 C 5.453125 2.125 4.769531 2.28125 4 2.28125 Z M 4 2.28125 "/></g></g></g></g></g></svg>